<svg width="2865" height="800" viewBox="0 0 2865 800" fill="none" xmlns="http://www.w3.org/2000/svg">
<path d="M415.629 486.553C386.705 515.477 339.81 515.477 310.886 486.553C281.962 457.629 281.962 410.733 310.886 381.809C339.81 352.885 386.705 352.885 415.629 381.809C444.553 410.733 444.553 457.629 415.629 486.553Z" stroke="url(#paint0_linear_686_1277)" stroke-width="40"/>
<path d="M544.719 687.853C451.111 589.21 302.861 571.824 213.579 649.062C200.65 660.229 189.33 673.181 179.951 687.539" stroke="#F39E54" stroke-opacity="0.6" stroke-width="45" stroke-linecap="round"/>
<path d="M69.3442 331.627C201.79 355.538 331.157 280.298 358.273 163.587C362.219 146.631 363.842 129.301 363.059 112" stroke="#4682B4" stroke-opacity="0.8" stroke-width="45" stroke-linecap="round"/>
<path d="M656.331 331.799C523.998 355.739 394.686 280.471 367.542 163.673C363.6 146.763 361.98 129.371 362.729 112" stroke="#F3A754" stroke-width="45" stroke-linecap="round"/>
<path d="M179.354 687.189C242.54 565.304 212.934 415.687 113.285 353.006C98.87 343.935 83.2909 336.98 67 332.342" stroke="#4682B4" stroke-width="45" stroke-linecap="round"/>
<path d="M544.867 688C481.413 565.859 511.13 415.961 611.244 353.192C625.733 344.099 641.395 337.13 657.773 332.489" stroke="#F39E54" stroke-opacity="0.8" stroke-width="45" stroke-linecap="round"/>
<path d="M1939.38 558.595V245.811H2045.55C2078.73 245.811 2106.34 252.859 2128.37 266.957C2150.69 280.76 2167.43 299.557 2178.59 323.346C2189.75 346.841 2195.33 372.98 2195.33 401.762C2195.33 433.481 2189.16 461.088 2176.83 484.584C2164.79 508.079 2147.46 526.288 2124.84 539.211C2102.52 552.133 2076.09 558.595 2045.55 558.595H1939.38ZM2164.49 401.762C2164.49 376.798 2159.79 354.624 2150.4 335.241C2141.29 315.857 2127.93 300.732 2110.31 289.865C2092.69 278.705 2071.1 273.124 2045.55 273.124H1970.22V531.281H2045.55C2071.39 531.281 2093.13 525.554 2110.75 514.1C2128.37 502.646 2141.73 487.227 2150.84 467.843C2159.94 448.166 2164.49 426.139 2164.49 401.762Z" fill="#4682B4"/>
<path d="M2347.25 563C2330.8 563 2315.53 559.916 2301.43 553.749C2287.34 547.287 2275.15 538.623 2264.87 527.757C2254.59 516.596 2246.51 503.821 2240.64 489.43C2235.06 475.039 2232.27 459.62 2232.27 443.173C2232.27 421.733 2237.11 402.056 2246.81 384.141C2256.79 366.225 2270.45 351.981 2287.78 341.408C2305.1 330.541 2324.78 325.108 2346.81 325.108C2369.42 325.108 2389.1 330.541 2405.84 341.408C2422.88 352.275 2436.24 366.666 2445.93 384.581C2455.62 402.203 2460.47 421.586 2460.47 442.732C2460.47 445.082 2460.47 447.432 2460.47 449.781C2460.47 451.837 2460.32 453.452 2460.03 454.627H2263.55C2265.01 471.074 2269.57 485.759 2277.2 498.681C2285.13 511.31 2295.27 521.442 2307.6 529.078C2320.23 536.421 2333.89 540.092 2348.57 540.092C2363.55 540.092 2377.65 536.274 2390.86 528.638C2404.37 521.002 2413.77 511.016 2419.06 498.681L2445.05 505.73C2440.35 516.596 2433.15 526.435 2423.46 535.246C2413.77 544.057 2402.32 550.959 2389.1 555.951C2376.18 560.65 2362.23 563 2347.25 563ZM2262.67 433.041H2432.27C2431.1 416.3 2426.55 401.615 2418.62 388.986C2410.98 376.358 2400.85 366.519 2388.22 359.47C2375.88 352.128 2362.23 348.457 2347.25 348.457C2332.27 348.457 2318.61 352.128 2306.28 359.47C2293.94 366.519 2283.81 376.505 2275.88 389.427C2268.25 402.056 2263.84 416.594 2262.67 433.041Z" fill="#4682B4"/>
<path d="M2510.7 558.595V245.811H2716V273.124H2541.54V388.105H2688.68V413.657H2541.54V558.595H2510.7Z" fill="#4682B4"/>
<path d="M2763.96 558.595V329.073H2793.91V558.595H2763.96ZM2763.96 281.054V237H2793.91V281.054H2763.96Z" fill="#4682B4"/>
<mask id="path-8-outside-1_686_1277" maskUnits="userSpaceOnUse" x="698" y="242.81" width="1197" height="323" fill="black">
<rect fill="white" x="698" y="242.81" width="1197" height="323"/>
<path d="M832.841 245.81H858.832L988.792 558.594H956.192L915.662 460.794H775.13L735.041 558.594H702L832.841 245.81ZM908.614 436.564L845.616 281.935L781.738 436.564H908.614Z"/>
<path d="M1128.56 547.581C1126.21 548.462 1122.54 550.077 1117.55 552.427C1112.56 554.776 1106.54 556.832 1099.49 558.594C1092.44 560.356 1084.8 561.237 1076.58 561.237C1068.06 561.237 1059.99 559.622 1052.35 556.391C1045.01 553.161 1039.13 548.315 1034.73 541.854C1030.32 535.099 1028.12 526.875 1028.12 517.183V352.862H996.402V329.073H1028.12V251.537H1058.08V329.073H1110.94V352.862H1058.08V508.813C1058.66 517.036 1061.6 523.204 1066.89 527.316C1072.47 531.427 1078.78 533.483 1085.83 533.483C1094.05 533.483 1101.54 532.162 1108.3 529.518C1115.05 526.582 1119.17 524.526 1120.63 523.351L1128.56 547.581Z"/>
<path d="M1276.13 547.581C1273.78 548.462 1270.11 550.077 1265.11 552.427C1260.12 554.776 1254.1 556.832 1247.05 558.594C1240 560.356 1232.37 561.237 1224.14 561.237C1215.63 561.237 1207.55 559.622 1199.91 556.391C1192.57 553.161 1186.7 548.315 1182.29 541.854C1177.89 535.099 1175.68 526.875 1175.68 517.183V352.862H1143.97V329.073H1175.68V251.537H1205.64V329.073H1258.51V352.862H1205.64V508.813C1206.23 517.036 1209.17 523.204 1214.45 527.316C1220.03 531.427 1226.35 533.483 1233.4 533.483C1241.62 533.483 1249.11 532.162 1255.86 529.518C1262.62 526.582 1266.73 524.526 1268.2 523.351L1276.13 547.581Z"/>
<path d="M1408.81 563C1392.36 563 1377.09 559.916 1362.99 553.748C1348.89 547.287 1336.7 538.623 1326.42 527.756C1316.15 516.596 1308.07 503.82 1302.2 489.429C1296.62 475.038 1293.82 459.619 1293.82 443.173C1293.82 421.733 1298.67 402.055 1308.36 384.14C1318.35 366.225 1332.01 351.981 1349.33 341.408C1366.66 330.541 1386.34 325.108 1408.37 325.108C1430.98 325.108 1450.66 330.541 1467.4 341.408C1484.43 352.274 1497.8 366.665 1507.49 384.581C1517.18 402.202 1522.02 421.586 1522.02 442.732C1522.02 445.082 1522.02 447.431 1522.02 449.781C1522.02 451.836 1521.88 453.452 1521.58 454.627H1325.1C1326.57 471.073 1331.12 485.758 1338.76 498.681C1346.69 511.309 1356.82 521.442 1369.16 529.078C1381.79 536.42 1395.44 540.091 1410.13 540.091C1425.11 540.091 1439.2 536.273 1452.42 528.637C1465.93 521.001 1475.33 511.016 1480.61 498.681L1506.61 505.729C1501.91 516.596 1494.71 526.435 1485.02 535.245C1475.33 544.056 1463.87 550.958 1450.66 555.951C1437.73 560.65 1423.78 563 1408.81 563ZM1324.22 433.04H1493.83C1492.66 416.3 1488.1 401.615 1480.17 388.986C1472.54 376.357 1462.41 366.518 1449.78 359.47C1437.44 352.128 1423.78 348.456 1408.81 348.456C1393.83 348.456 1380.17 352.128 1367.84 359.47C1355.5 366.518 1345.37 376.504 1337.44 389.427C1329.8 402.055 1325.4 416.593 1324.22 433.04Z"/>
<path d="M1643.58 563C1624.78 563 1607.31 559.916 1591.15 553.748C1575 547.581 1561.05 538.182 1549.3 525.554L1561.64 504.408C1574.56 516.449 1587.48 525.26 1600.4 530.84C1613.62 536.127 1627.57 538.77 1642.25 538.77C1660.17 538.77 1674.71 535.245 1685.87 528.197C1697.03 520.854 1702.61 510.428 1702.61 496.918C1702.61 487.814 1699.82 480.912 1694.24 476.213C1688.95 471.22 1681.17 467.255 1670.89 464.318C1660.9 461.088 1648.86 457.71 1634.77 454.186C1618.91 449.781 1605.54 445.228 1594.68 440.529C1584.1 435.537 1576.03 429.369 1570.45 422.027C1565.16 414.391 1562.52 404.552 1562.52 392.51C1562.52 377.532 1566.19 365.197 1573.53 355.505C1581.17 345.519 1591.45 338.03 1604.37 333.037C1617.58 327.751 1632.27 325.108 1648.42 325.108C1666.04 325.108 1681.61 327.898 1695.12 333.478C1708.63 339.058 1719.64 346.841 1728.16 356.827L1713.62 377.091C1705.4 367.693 1695.56 360.791 1684.11 356.386C1672.95 351.687 1660.46 349.337 1646.66 349.337C1637.26 349.337 1628.3 350.659 1619.79 353.302C1611.27 355.652 1604.22 359.764 1598.64 365.637C1593.35 371.218 1590.71 379 1590.71 388.986C1590.71 397.209 1592.77 403.671 1596.88 408.37C1600.99 412.775 1607.16 416.593 1615.38 419.824C1623.61 422.761 1633.74 425.991 1645.78 429.516C1663.11 434.215 1678.23 439.061 1691.15 444.054C1704.08 448.753 1714.06 454.92 1721.11 462.556C1728.16 470.192 1731.68 480.912 1731.68 494.716C1731.68 516.155 1723.61 532.896 1707.45 544.937C1691.3 556.979 1670.01 563 1643.58 563Z"/>
<path d="M1891.34 547.581C1888.99 548.462 1885.31 550.077 1880.32 552.427C1875.33 554.776 1869.31 556.832 1862.26 558.594C1855.21 560.356 1847.58 561.237 1839.35 561.237C1830.83 561.237 1822.76 559.622 1815.12 556.391C1807.78 553.161 1801.91 548.315 1797.5 541.854C1793.1 535.099 1790.89 526.875 1790.89 517.183V352.862H1759.17V329.073H1790.89V251.537H1820.85V329.073H1873.71V352.862H1820.85V508.813C1821.44 517.036 1824.37 523.204 1829.66 527.316C1835.24 531.427 1841.55 533.483 1848.6 533.483C1856.83 533.483 1864.32 532.162 1871.07 529.518C1877.83 526.582 1881.94 524.526 1883.41 523.351L1891.34 547.581Z"/>
</mask>
<path d="M832.841 245.81H858.832L988.792 558.594H956.192L915.662 460.794H775.13L735.041 558.594H702L832.841 245.81ZM908.614 436.564L845.616 281.935L781.738 436.564H908.614Z" fill="#F3A754"/>
<path d="M1128.56 547.581C1126.21 548.462 1122.54 550.077 1117.55 552.427C1112.56 554.776 1106.54 556.832 1099.49 558.594C1092.44 560.356 1084.8 561.237 1076.58 561.237C1068.06 561.237 1059.99 559.622 1052.35 556.391C1045.01 553.161 1039.13 548.315 1034.73 541.854C1030.32 535.099 1028.12 526.875 1028.12 517.183V352.862H996.402V329.073H1028.12V251.537H1058.08V329.073H1110.94V352.862H1058.08V508.813C1058.66 517.036 1061.6 523.204 1066.89 527.316C1072.47 531.427 1078.78 533.483 1085.83 533.483C1094.05 533.483 1101.54 532.162 1108.3 529.518C1115.05 526.582 1119.17 524.526 1120.63 523.351L1128.56 547.581Z" fill="#F3A754"/>
<path d="M1276.13 547.581C1273.78 548.462 1270.11 550.077 1265.11 552.427C1260.12 554.776 1254.1 556.832 1247.05 558.594C1240 560.356 1232.37 561.237 1224.14 561.237C1215.63 561.237 1207.55 559.622 1199.91 556.391C1192.57 553.161 1186.7 548.315 1182.29 541.854C1177.89 535.099 1175.68 526.875 1175.68 517.183V352.862H1143.97V329.073H1175.68V251.537H1205.64V329.073H1258.51V352.862H1205.64V508.813C1206.23 517.036 1209.17 523.204 1214.45 527.316C1220.03 531.427 1226.35 533.483 1233.4 533.483C1241.62 533.483 1249.11 532.162 1255.86 529.518C1262.62 526.582 1266.73 524.526 1268.2 523.351L1276.13 547.581Z" fill="#F3A754"/>
<path d="M1408.81 563C1392.36 563 1377.09 559.916 1362.99 553.748C1348.89 547.287 1336.7 538.623 1326.42 527.756C1316.15 516.596 1308.07 503.82 1302.2 489.429C1296.62 475.038 1293.82 459.619 1293.82 443.173C1293.82 421.733 1298.67 402.055 1308.36 384.14C1318.35 366.225 1332.01 351.981 1349.33 341.408C1366.66 330.541 1386.34 325.108 1408.37 325.108C1430.98 325.108 1450.66 330.541 1467.4 341.408C1484.43 352.274 1497.8 366.665 1507.49 384.581C1517.18 402.202 1522.02 421.586 1522.02 442.732C1522.02 445.082 1522.02 447.431 1522.02 449.781C1522.02 451.836 1521.88 453.452 1521.58 454.627H1325.1C1326.57 471.073 1331.12 485.758 1338.76 498.681C1346.69 511.309 1356.82 521.442 1369.16 529.078C1381.79 536.42 1395.44 540.091 1410.13 540.091C1425.11 540.091 1439.2 536.273 1452.42 528.637C1465.93 521.001 1475.33 511.016 1480.61 498.681L1506.61 505.729C1501.91 516.596 1494.71 526.435 1485.02 535.245C1475.33 544.056 1463.87 550.958 1450.66 555.951C1437.73 560.65 1423.78 563 1408.81 563ZM1324.22 433.04H1493.83C1492.66 416.3 1488.1 401.615 1480.17 388.986C1472.54 376.357 1462.41 366.518 1449.78 359.47C1437.44 352.128 1423.78 348.456 1408.81 348.456C1393.83 348.456 1380.17 352.128 1367.84 359.47C1355.5 366.518 1345.37 376.504 1337.44 389.427C1329.8 402.055 1325.4 416.593 1324.22 433.04Z" fill="#F3A754"/>
<path d="M1643.58 563C1624.78 563 1607.31 559.916 1591.15 553.748C1575 547.581 1561.05 538.182 1549.3 525.554L1561.64 504.408C1574.56 516.449 1587.48 525.26 1600.4 530.84C1613.62 536.127 1627.57 538.77 1642.25 538.77C1660.17 538.77 1674.71 535.245 1685.87 528.197C1697.03 520.854 1702.61 510.428 1702.61 496.918C1702.61 487.814 1699.82 480.912 1694.24 476.213C1688.95 471.22 1681.17 467.255 1670.89 464.318C1660.9 461.088 1648.86 457.71 1634.77 454.186C1618.91 449.781 1605.54 445.228 1594.68 440.529C1584.1 435.537 1576.03 429.369 1570.45 422.027C1565.16 414.391 1562.52 404.552 1562.52 392.51C1562.52 377.532 1566.19 365.197 1573.53 355.505C1581.17 345.519 1591.45 338.03 1604.37 333.037C1617.58 327.751 1632.27 325.108 1648.42 325.108C1666.04 325.108 1681.61 327.898 1695.12 333.478C1708.63 339.058 1719.64 346.841 1728.16 356.827L1713.62 377.091C1705.4 367.693 1695.56 360.791 1684.11 356.386C1672.95 351.687 1660.46 349.337 1646.66 349.337C1637.26 349.337 1628.3 350.659 1619.79 353.302C1611.27 355.652 1604.22 359.764 1598.64 365.637C1593.35 371.218 1590.71 379 1590.71 388.986C1590.71 397.209 1592.77 403.671 1596.88 408.37C1600.99 412.775 1607.16 416.593 1615.38 419.824C1623.61 422.761 1633.74 425.991 1645.78 429.516C1663.11 434.215 1678.23 439.061 1691.15 444.054C1704.08 448.753 1714.06 454.92 1721.11 462.556C1728.16 470.192 1731.68 480.912 1731.68 494.716C1731.68 516.155 1723.61 532.896 1707.45 544.937C1691.3 556.979 1670.01 563 1643.58 563Z" fill="#F3A754"/>
<path d="M1891.34 547.581C1888.99 548.462 1885.31 550.077 1880.32 552.427C1875.33 554.776 1869.31 556.832 1862.26 558.594C1855.21 560.356 1847.58 561.237 1839.35 561.237C1830.83 561.237 1822.76 559.622 1815.12 556.391C1807.78 553.161 1801.91 548.315 1797.5 541.854C1793.1 535.099 1790.89 526.875 1790.89 517.183V352.862H1759.17V329.073H1790.89V251.537H1820.85V329.073H1873.71V352.862H1820.85V508.813C1821.44 517.036 1824.37 523.204 1829.66 527.316C1835.24 531.427 1841.55 533.483 1848.6 533.483C1856.83 533.483 1864.32 532.162 1871.07 529.518C1877.83 526.582 1881.94 524.526 1883.41 523.351L1891.34 547.581Z" fill="#F3A754"/>
<path d="M832.841 245.81H858.832L988.792 558.594H956.192L915.662 460.794H775.13L735.041 558.594H702L832.841 245.81ZM908.614 436.564L845.616 281.935L781.738 436.564H908.614Z" stroke="#F39E54" stroke-opacity="0.9" stroke-width="5" mask="url(#path-8-outside-1_686_1277)"/>
<path d="M1128.56 547.581C1126.21 548.462 1122.54 550.077 1117.55 552.427C1112.56 554.776 1106.54 556.832 1099.49 558.594C1092.44 560.356 1084.8 561.237 1076.58 561.237C1068.06 561.237 1059.99 559.622 1052.35 556.391C1045.01 553.161 1039.13 548.315 1034.73 541.854C1030.32 535.099 1028.12 526.875 1028.12 517.183V352.862H996.402V329.073H1028.12V251.537H1058.08V329.073H1110.94V352.862H1058.08V508.813C1058.66 517.036 1061.6 523.204 1066.89 527.316C1072.47 531.427 1078.78 533.483 1085.83 533.483C1094.05 533.483 1101.54 532.162 1108.3 529.518C1115.05 526.582 1119.17 524.526 1120.63 523.351L1128.56 547.581Z" stroke="#F39E54" stroke-opacity="0.9" stroke-width="5" mask="url(#path-8-outside-1_686_1277)"/>
<path d="M1276.13 547.581C1273.78 548.462 1270.11 550.077 1265.11 552.427C1260.12 554.776 1254.1 556.832 1247.05 558.594C1240 560.356 1232.37 561.237 1224.14 561.237C1215.63 561.237 1207.55 559.622 1199.91 556.391C1192.57 553.161 1186.7 548.315 1182.29 541.854C1177.89 535.099 1175.68 526.875 1175.68 517.183V352.862H1143.97V329.073H1175.68V251.537H1205.64V329.073H1258.51V352.862H1205.64V508.813C1206.23 517.036 1209.17 523.204 1214.45 527.316C1220.03 531.427 1226.35 533.483 1233.4 533.483C1241.62 533.483 1249.11 532.162 1255.86 529.518C1262.62 526.582 1266.73 524.526 1268.2 523.351L1276.13 547.581Z" stroke="#F39E54" stroke-opacity="0.9" stroke-width="5" mask="url(#path-8-outside-1_686_1277)"/>
<path d="M1408.81 563C1392.36 563 1377.09 559.916 1362.99 553.748C1348.89 547.287 1336.7 538.623 1326.42 527.756C1316.15 516.596 1308.07 503.82 1302.2 489.429C1296.62 475.038 1293.82 459.619 1293.82 443.173C1293.82 421.733 1298.67 402.055 1308.36 384.14C1318.35 366.225 1332.01 351.981 1349.33 341.408C1366.66 330.541 1386.34 325.108 1408.37 325.108C1430.98 325.108 1450.66 330.541 1467.4 341.408C1484.43 352.274 1497.8 366.665 1507.49 384.581C1517.18 402.202 1522.02 421.586 1522.02 442.732C1522.02 445.082 1522.02 447.431 1522.02 449.781C1522.02 451.836 1521.88 453.452 1521.58 454.627H1325.1C1326.57 471.073 1331.12 485.758 1338.76 498.681C1346.69 511.309 1356.82 521.442 1369.16 529.078C1381.79 536.42 1395.44 540.091 1410.13 540.091C1425.11 540.091 1439.2 536.273 1452.42 528.637C1465.93 521.001 1475.33 511.016 1480.61 498.681L1506.61 505.729C1501.91 516.596 1494.71 526.435 1485.02 535.245C1475.33 544.056 1463.87 550.958 1450.66 555.951C1437.73 560.65 1423.78 563 1408.81 563ZM1324.22 433.04H1493.83C1492.66 416.3 1488.1 401.615 1480.17 388.986C1472.54 376.357 1462.41 366.518 1449.78 359.47C1437.44 352.128 1423.78 348.456 1408.81 348.456C1393.83 348.456 1380.17 352.128 1367.84 359.47C1355.5 366.518 1345.37 376.504 1337.44 389.427C1329.8 402.055 1325.4 416.593 1324.22 433.04Z" stroke="#F39E54" stroke-opacity="0.9" stroke-width="5" mask="url(#path-8-outside-1_686_1277)"/>
<path d="M1643.58 563C1624.78 563 1607.31 559.916 1591.15 553.748C1575 547.581 1561.05 538.182 1549.3 525.554L1561.64 504.408C1574.56 516.449 1587.48 525.26 1600.4 530.84C1613.62 536.127 1627.57 538.77 1642.25 538.77C1660.17 538.77 1674.71 535.245 1685.87 528.197C1697.03 520.854 1702.61 510.428 1702.61 496.918C1702.61 487.814 1699.82 480.912 1694.24 476.213C1688.95 471.22 1681.17 467.255 1670.89 464.318C1660.9 461.088 1648.86 457.71 1634.77 454.186C1618.91 449.781 1605.54 445.228 1594.68 440.529C1584.1 435.537 1576.03 429.369 1570.45 422.027C1565.16 414.391 1562.52 404.552 1562.52 392.51C1562.52 377.532 1566.19 365.197 1573.53 355.505C1581.17 345.519 1591.45 338.03 1604.37 333.037C1617.58 327.751 1632.27 325.108 1648.42 325.108C1666.04 325.108 1681.61 327.898 1695.12 333.478C1708.63 339.058 1719.64 346.841 1728.16 356.827L1713.62 377.091C1705.4 367.693 1695.56 360.791 1684.11 356.386C1672.95 351.687 1660.46 349.337 1646.66 349.337C1637.26 349.337 1628.3 350.659 1619.79 353.302C1611.27 355.652 1604.22 359.764 1598.64 365.637C1593.35 371.218 1590.71 379 1590.71 388.986C1590.71 397.209 1592.77 403.671 1596.88 408.37C1600.99 412.775 1607.16 416.593 1615.38 419.824C1623.61 422.761 1633.74 425.991 1645.78 429.516C1663.11 434.215 1678.23 439.061 1691.15 444.054C1704.08 448.753 1714.06 454.92 1721.11 462.556C1728.16 470.192 1731.68 480.912 1731.68 494.716C1731.68 516.155 1723.61 532.896 1707.45 544.937C1691.3 556.979 1670.01 563 1643.58 563Z" stroke="#F39E54" stroke-opacity="0.9" stroke-width="5" mask="url(#path-8-outside-1_686_1277)"/>
<path d="M1891.34 547.581C1888.99 548.462 1885.31 550.077 1880.32 552.427C1875.33 554.776 1869.31 556.832 1862.26 558.594C1855.21 560.356 1847.58 561.237 1839.35 561.237C1830.83 561.237 1822.76 559.622 1815.12 556.391C1807.78 553.161 1801.91 548.315 1797.5 541.854C1793.1 535.099 1790.89 526.875 1790.89 517.183V352.862H1759.17V329.073H1790.89V251.537H1820.85V329.073H1873.71V352.862H1820.85V508.813C1821.44 517.036 1824.37 523.204 1829.66 527.316C1835.24 531.427 1841.55 533.483 1848.6 533.483C1856.83 533.483 1864.32 532.162 1871.07 529.518C1877.83 526.582 1881.94 524.526 1883.41 523.351L1891.34 547.581Z" stroke="#F39E54" stroke-opacity="0.9" stroke-width="5" mask="url(#path-8-outside-1_686_1277)"/>
<defs>
<linearGradient id="paint0_linear_686_1277" x1="302.154" y1="434.181" x2="426.213" y2="434.181" gradientUnits="userSpaceOnUse">
<stop stop-color="#4682B4"/>
<stop offset="1" stop-color="#F3A754"/>
</linearGradient>
</defs>
</svg>
